<mxfile host="65bd71144e">
    <diagram id="CTIWSv47o96AZuyz9_4b" name="Page-1">
        <mxGraphModel dx="1283" dy="635" grid="1" gridSize="10" guides="1" tooltips="1" connect="1" arrows="1" fold="1" page="1" pageScale="1" pageWidth="850" pageHeight="1100" math="0" shadow="0">
            <root>
                <mxCell id="0"/>
                <mxCell id="1" parent="0"/>
                <mxCell id="2" value="" style="group" connectable="0" vertex="1" parent="1">
                    <mxGeometry x="-4.5" y="185.71875" width="780" height="310" as="geometry"/>
                </mxCell>
                <mxCell id="3" value="" style="rounded=0;whiteSpace=wrap;html=1;labelBackgroundColor=default;fillStyle=solid;strokeColor=#CCCCCC;fontSize=11;fontColor=#0000FF;fillColor=none;" vertex="1" parent="2">
                    <mxGeometry width="780" height="310" as="geometry"/>
                </mxCell>
                <mxCell id="4" value="" style="rounded=0;whiteSpace=wrap;html=1;labelBackgroundColor=default;fontSize=32;fillColor=none;" vertex="1" parent="2">
                    <mxGeometry x="100" y="210" width="560" height="40" as="geometry"/>
                </mxCell>
                <mxCell id="5" value="" style="endArrow=none;html=1;rounded=0;labelBackgroundColor=none;fontSize=32;entryX=1;entryY=0.5;entryDx=0;entryDy=0;exitX=0;exitY=0.5;exitDx=0;exitDy=0;dashed=1;" edge="1" parent="2" source="4" target="4">
                    <mxGeometry width="50" height="50" relative="1" as="geometry">
                        <mxPoint x="210" y="-50" as="sourcePoint"/>
                        <mxPoint x="260" y="-100" as="targetPoint"/>
                    </mxGeometry>
                </mxCell>
                <mxCell id="6" value="" style="endArrow=oval;html=1;rounded=0;labelBackgroundColor=none;fontSize=32;exitX=1;exitY=0.5;exitDx=0;exitDy=0;endFill=1;startSize=6;endSize=10;" edge="1" parent="2" source="34">
                    <mxGeometry width="50" height="50" relative="1" as="geometry">
                        <mxPoint x="210" y="-50" as="sourcePoint"/>
                        <mxPoint x="590" y="230" as="targetPoint"/>
                        <Array as="points">
                            <mxPoint x="550" y="150"/>
                        </Array>
                    </mxGeometry>
                </mxCell>
                <mxCell id="7" value="Taille d'Ã©tiquette fixe pour constitution de tableau sur les plans" style="text;html=1;strokeColor=none;fillColor=none;align=center;verticalAlign=middle;whiteSpace=wrap;rounded=0;fontSize=13;" vertex="1" parent="2">
                    <mxGeometry x="205" y="86" width="360" height="20" as="geometry"/>
                </mxCell>
                <mxCell id="8" value="" style="rounded=0;whiteSpace=wrap;html=1;labelBackgroundColor=default;fontSize=16;fillStyle=hatch;fillColor=#4D4D4D;" vertex="1" parent="2">
                    <mxGeometry x="100" y="270" width="640" height="30" as="geometry"/>
                </mxCell>
                <mxCell id="9" value="" style="endArrow=classic;startArrow=classic;html=1;rounded=0;labelBackgroundColor=none;fontSize=16;startSize=6;endSize=6;fontColor=#0000FF;strokeColor=#0000FF;" edge="1" parent="2">
                    <mxGeometry width="50" height="50" relative="1" as="geometry">
                        <mxPoint x="80" y="270" as="sourcePoint"/>
                        <mxPoint x="80" y="250" as="targetPoint"/>
                    </mxGeometry>
                </mxCell>
                <mxCell id="10" value="" style="endArrow=none;html=1;rounded=0;labelBackgroundColor=none;fontSize=16;startSize=6;endSize=6;fontColor=#0000FF;strokeColor=#0000FF;" edge="1" parent="2">
                    <mxGeometry width="50" height="50" relative="1" as="geometry">
                        <mxPoint x="90" y="250" as="sourcePoint"/>
                        <mxPoint x="70" y="250" as="targetPoint"/>
                    </mxGeometry>
                </mxCell>
                <mxCell id="11" value="" style="endArrow=none;html=1;rounded=0;labelBackgroundColor=none;fontSize=16;startSize=6;endSize=6;fontColor=#0000FF;strokeColor=#0000FF;" edge="1" parent="2">
                    <mxGeometry width="50" height="50" relative="1" as="geometry">
                        <mxPoint x="90" y="270" as="sourcePoint"/>
                        <mxPoint x="70" y="270" as="targetPoint"/>
                    </mxGeometry>
                </mxCell>
                <mxCell id="12" value="40mm" style="text;html=1;strokeColor=none;fillColor=none;align=center;verticalAlign=middle;whiteSpace=wrap;rounded=0;fontSize=11;fontColor=#0000FF;" vertex="1" parent="2">
                    <mxGeometry x="10" y="250" width="60" height="20" as="geometry"/>
                </mxCell>
                <mxCell id="13" value="" style="ellipse;whiteSpace=wrap;html=1;aspect=fixed;labelBackgroundColor=default;fillStyle=solid;fontSize=16;fillColor=#FFD966;strokeColor=#808080;" vertex="1" parent="2">
                    <mxGeometry x="150" y="190" width="10" height="10" as="geometry"/>
                </mxCell>
                <mxCell id="14" value="" style="ellipse;whiteSpace=wrap;html=1;aspect=fixed;labelBackgroundColor=default;fillStyle=solid;fontSize=16;fillColor=#FFD966;strokeColor=#808080;" vertex="1" parent="2">
                    <mxGeometry x="230" y="190" width="10" height="10" as="geometry"/>
                </mxCell>
                <mxCell id="15" value="" style="ellipse;whiteSpace=wrap;html=1;aspect=fixed;labelBackgroundColor=default;fillStyle=solid;fontSize=16;fillColor=#FFD966;strokeColor=#808080;" vertex="1" parent="2">
                    <mxGeometry x="310" y="190" width="10" height="10" as="geometry"/>
                </mxCell>
                <mxCell id="16" value="" style="ellipse;whiteSpace=wrap;html=1;aspect=fixed;labelBackgroundColor=default;fillStyle=solid;fontSize=16;fillColor=#FFD966;strokeColor=#808080;" vertex="1" parent="2">
                    <mxGeometry x="390" y="190" width="10" height="10" as="geometry"/>
                </mxCell>
                <mxCell id="17" value="" style="ellipse;whiteSpace=wrap;html=1;aspect=fixed;labelBackgroundColor=default;fillStyle=solid;fontSize=16;fillColor=#FFD966;strokeColor=#808080;" vertex="1" parent="2">
                    <mxGeometry x="470" y="190" width="10" height="10" as="geometry"/>
                </mxCell>
                <mxCell id="18" value="" style="rounded=0;whiteSpace=wrap;html=1;labelBackgroundColor=default;fontSize=32;rotation=90;fillColor=none;" vertex="1" parent="2">
                    <mxGeometry x="635" y="105" width="130" height="40" as="geometry"/>
                </mxCell>
                <mxCell id="19" value="" style="endArrow=none;html=1;rounded=0;labelBackgroundColor=none;fontSize=32;entryX=1;entryY=0.5;entryDx=0;entryDy=0;exitX=0;exitY=0.5;exitDx=0;exitDy=0;dashed=1;" edge="1" parent="2" source="18" target="18">
                    <mxGeometry width="50" height="50" relative="1" as="geometry">
                        <mxPoint x="341" y="-230" as="sourcePoint"/>
                        <mxPoint x="391" y="-280" as="targetPoint"/>
                    </mxGeometry>
                </mxCell>
                <mxCell id="20" value="" style="endArrow=none;html=1;rounded=0;labelBackgroundColor=none;fontSize=13;startSize=6;endSize=6;entryX=1;entryY=1;entryDx=0;entryDy=0;exitX=1;exitY=0;exitDx=0;exitDy=0;edgeStyle=orthogonalEdgeStyle;curved=1;" edge="1" parent="2" source="4" target="18">
                    <mxGeometry width="50" height="50" relative="1" as="geometry">
                        <mxPoint x="640" y="220" as="sourcePoint"/>
                        <mxPoint x="690" y="170" as="targetPoint"/>
                        <Array as="points">
                            <mxPoint x="680" y="210"/>
                        </Array>
                    </mxGeometry>
                </mxCell>
                <mxCell id="21" value="" style="endArrow=none;html=1;rounded=0;labelBackgroundColor=none;fontSize=13;startSize=6;endSize=6;entryX=1;entryY=0;entryDx=0;entryDy=0;exitX=1;exitY=0;exitDx=0;exitDy=0;edgeStyle=orthogonalEdgeStyle;curved=1;" edge="1" parent="2" target="18">
                    <mxGeometry width="50" height="50" relative="1" as="geometry">
                        <mxPoint x="660" y="250" as="sourcePoint"/>
                        <mxPoint x="680" y="230" as="targetPoint"/>
                        <Array as="points">
                            <mxPoint x="720" y="250"/>
                        </Array>
                    </mxGeometry>
                </mxCell>
                <mxCell id="22" value="" style="endArrow=none;html=1;rounded=0;labelBackgroundColor=none;fontSize=13;startSize=6;endSize=6;entryX=1;entryY=0.5;entryDx=0;entryDy=0;exitX=1;exitY=0;exitDx=0;exitDy=0;edgeStyle=orthogonalEdgeStyle;curved=1;dashed=1;" edge="1" parent="2" target="18">
                    <mxGeometry width="50" height="50" relative="1" as="geometry">
                        <mxPoint x="660" y="230" as="sourcePoint"/>
                        <mxPoint x="680" y="210" as="targetPoint"/>
                        <Array as="points">
                            <mxPoint x="700" y="230"/>
                        </Array>
                    </mxGeometry>
                </mxCell>
                <mxCell id="23" value="" style="rounded=0;whiteSpace=wrap;html=1;labelBackgroundColor=default;fontSize=16;fillStyle=hatch;fillColor=#4D4D4D;rotation=90;" vertex="1" parent="2">
                    <mxGeometry x="631.25" y="161.25" width="247.5" height="30" as="geometry"/>
                </mxCell>
                <mxCell id="24" value="" style="ellipse;whiteSpace=wrap;html=1;aspect=fixed;labelBackgroundColor=default;fillStyle=solid;fontSize=16;fillColor=#FFD966;strokeColor=#808080;" vertex="1" parent="2">
                    <mxGeometry x="550" y="190" width="10" height="10" as="geometry"/>
                </mxCell>
                <mxCell id="25" value="" style="ellipse;whiteSpace=wrap;html=1;aspect=fixed;labelBackgroundColor=default;fillStyle=solid;fontSize=16;fillColor=#FFD966;strokeColor=#808080;" vertex="1" parent="2">
                    <mxGeometry x="660" y="130" width="10" height="10" as="geometry"/>
                </mxCell>
                <mxCell id="26" value="r = 150mm" style="endArrow=classic;html=1;rounded=0;labelBackgroundColor=none;strokeColor=#0000FF;fontSize=11;startSize=6;endSize=6;startArrow=oval;startFill=0;fontColor=#0000FF;" edge="1" parent="2">
                    <mxGeometry x="-1" y="-21" width="50" height="50" relative="1" as="geometry">
                        <mxPoint x="655" y="185" as="sourcePoint"/>
                        <mxPoint x="675" y="205" as="targetPoint"/>
                        <mxPoint as="offset"/>
                    </mxGeometry>
                </mxCell>
                <mxCell id="27" value="40mm" style="text;html=1;strokeColor=none;fillColor=none;align=center;verticalAlign=middle;whiteSpace=wrap;rounded=0;fontSize=11;fontColor=#0000FF;" vertex="1" parent="2">
                    <mxGeometry x="700" y="6" width="60" height="20" as="geometry"/>
                </mxCell>
                <mxCell id="28" value="" style="group;rotation=90;" connectable="0" vertex="1" parent="2">
                    <mxGeometry x="720" y="26" width="20" height="20" as="geometry"/>
                </mxCell>
                <mxCell id="29" value="" style="endArrow=classic;startArrow=classic;html=1;rounded=0;labelBackgroundColor=none;fontSize=16;startSize=6;endSize=6;fontColor=#0000FF;strokeColor=#0000FF;" edge="1" parent="28">
                    <mxGeometry width="50" height="50" relative="1" as="geometry">
                        <mxPoint y="10" as="sourcePoint"/>
                        <mxPoint x="20" y="10" as="targetPoint"/>
                    </mxGeometry>
                </mxCell>
                <mxCell id="30" value="" style="endArrow=none;html=1;rounded=0;labelBackgroundColor=none;fontSize=16;startSize=6;endSize=6;fontColor=#0000FF;strokeColor=#0000FF;" edge="1" parent="28">
                    <mxGeometry width="50" height="50" relative="1" as="geometry">
                        <mxPoint x="20" y="20" as="sourcePoint"/>
                        <mxPoint x="20" as="targetPoint"/>
                    </mxGeometry>
                </mxCell>
                <mxCell id="31" value="" style="endArrow=none;html=1;rounded=0;labelBackgroundColor=none;fontSize=16;startSize=6;endSize=6;fontColor=#0000FF;strokeColor=#0000FF;" edge="1" parent="28">
                    <mxGeometry width="50" height="50" relative="1" as="geometry">
                        <mxPoint y="20" as="sourcePoint"/>
                        <mxPoint as="targetPoint"/>
                    </mxGeometry>
                </mxCell>
                <mxCell id="32" value="Exemple" style="text;html=1;strokeColor=#CCCCCC;fillColor=none;align=center;verticalAlign=middle;whiteSpace=wrap;rounded=0;fontSize=13;" vertex="1" parent="2">
                    <mxGeometry width="110" height="20" as="geometry"/>
                </mxCell>
                <mxCell id="33" value="" style="shape=table;startSize=0;container=1;collapsible=0;childLayout=tableLayout;fontSize=11;labelBackgroundColor=default;" vertex="1" parent="1">
                    <mxGeometry x="235.5" y="325.71875" width="290" height="20" as="geometry"/>
                </mxCell>
                <mxCell id="34" value="" style="shape=tableRow;horizontal=0;startSize=0;swimlaneHead=0;swimlaneBody=0;strokeColor=inherit;top=0;left=0;bottom=0;right=0;collapsible=0;dropTarget=0;fillColor=none;points=[[0,0.5],[1,0.5]];portConstraint=eastwest;fontSize=11;labelBackgroundColor=default;" vertex="1" parent="33">
                    <mxGeometry width="290" height="20" as="geometry"/>
                </mxCell>
                <mxCell id="35" value="BT400-01" style="shape=partialRectangle;html=1;whiteSpace=wrap;connectable=0;strokeColor=inherit;overflow=hidden;fillColor=none;top=0;left=0;bottom=0;right=0;pointerEvents=1;fontSize=11;labelBackgroundColor=default;" vertex="1" parent="34">
                    <mxGeometry width="97" height="20" as="geometry">
                        <mxRectangle width="97" height="20" as="alternateBounds"/>
                    </mxGeometry>
                </mxCell>
                <mxCell id="36" value="100x200mm" style="shape=partialRectangle;html=1;whiteSpace=wrap;connectable=0;strokeColor=inherit;overflow=hidden;fillColor=none;top=0;left=0;bottom=0;right=0;pointerEvents=1;fontSize=11;labelBackgroundColor=default;" vertex="1" parent="34">
                    <mxGeometry x="97" width="96" height="20" as="geometry">
                        <mxRectangle width="96" height="20" as="alternateBounds"/>
                    </mxGeometry>
                </mxCell>
                <mxCell id="37" value="Ai = 2600mm" style="shape=partialRectangle;html=1;whiteSpace=wrap;connectable=0;strokeColor=inherit;overflow=hidden;fillColor=none;top=0;left=0;bottom=0;right=0;pointerEvents=1;fontSize=11;labelBackgroundColor=default;" vertex="1" parent="34">
                    <mxGeometry x="193" width="97" height="20" as="geometry">
                        <mxRectangle width="97" height="20" as="alternateBounds"/>
                    </mxGeometry>
                </mxCell>
            </root>
        </mxGraphModel>
    </diagram>
</mxfile>